<svg width="120" height="24" viewBox="0 0 120 24" fill="none" xmlns="http://www.w3.org/2000/svg">
<path d="M20.2512 0.00266995C21.1871 -0.0239446 22.1182 0.148659 22.9853 0.509534C24.2157 1.05135 26.5909 4.59591 26.5773 5.97318C26.5636 7.35045 25.8937 8.44108 25.053 9.43384C24.9783 9.4971 24.9172 9.57539 24.8733 9.66384C24.8295 9.75229 24.8039 9.84902 24.7981 9.94801C24.7924 10.047 24.8065 10.1462 24.8398 10.2393C24.8731 10.3325 24.9247 10.4176 24.9915 10.4895C25.4289 11.1257 25.7912 11.8213 26.2287 12.454C26.9874 13.5517 26.9566 14.6947 26.4576 15.8518C25.7297 17.5646 24.4891 18.844 23.0845 19.9451C20.0804 22.2697 16.7379 23.7379 12.9683 23.9791C10.8733 24.1119 8.96968 23.6505 7.90338 21.4797C7.65052 20.9834 7.35547 20.5109 7.02164 20.0675C6.07496 18.7916 6.06128 17.4807 6.74823 16.0825C7.03028 15.4897 7.39524 14.9422 7.83161 14.457C7.89698 14.4048 7.95094 14.3392 7.99002 14.2643C8.02911 14.1895 8.05246 14.1072 8.05858 14.0226C8.0647 13.9379 8.05344 13.853 8.02553 13.7731C7.99763 13.6932 7.95369 13.6201 7.89655 13.5587C7.47276 12.9364 7.11391 12.2793 6.67987 11.6745C5.68876 10.3042 5.87673 8.93047 6.63203 7.56368C7.3763 6.28295 8.35029 5.15746 9.50283 4.24635C12.4898 1.76795 16.9327 0.00266995 20.2512 0.00266995ZM12.4454 15.5686C16.8063 15.3519 20.5247 13.5587 23.7953 10.6748C24.5711 9.97566 24.5472 9.70999 23.6689 9.16118C22.6072 8.53001 21.3768 8.26067 20.1556 8.39214C15.7605 8.7417 12.0079 10.5769 8.75095 13.5657C8.3921 13.8942 8.35451 14.1319 8.75095 14.492C9.82067 15.4603 11.1228 15.5442 12.4454 15.5686Z" fill="#252D43"/>
<path d="M105.651 19.2707V8.80606H108.099V10.4449H108.158C108.428 9.87885 108.83 9.42801 109.363 9.09235C109.903 8.7567 110.567 8.58887 111.357 8.58887C112.509 8.58887 113.397 8.93769 114.023 9.63533C114.654 10.333 114.97 11.2873 114.97 12.4983V19.2707H112.512V12.9919C112.512 12.2482 112.338 11.6756 111.989 11.2741C111.64 10.8661 111.117 10.662 110.419 10.662C109.952 10.662 109.544 10.7706 109.195 10.9878C108.846 11.1984 108.576 11.4946 108.386 11.8763C108.195 12.2515 108.099 12.6924 108.099 13.1992V19.2707H105.651Z" fill="#252D43"/>
<path d="M98 19.4484C97.309 19.4484 96.6969 19.3168 96.1638 19.0535C95.6373 18.7837 95.2259 18.4118 94.9297 17.9379C94.6402 17.4575 94.4954 16.9079 94.4954 16.2893V16.2695C94.4954 15.6443 94.65 15.1112 94.9594 14.6702C95.2753 14.2227 95.7294 13.8705 96.3217 13.6139C96.9141 13.3506 97.6315 13.1926 98.4739 13.14L102.472 12.8932V14.5221L98.8194 14.7492C98.2139 14.7887 97.7499 14.9335 97.4274 15.1836C97.1049 15.4337 96.9437 15.766 96.9437 16.1807V16.1905C96.9437 16.6183 97.1049 16.9573 97.4274 17.2074C97.7565 17.4509 98.1909 17.5727 98.7306 17.5727C99.2044 17.5727 99.6257 17.4772 99.9942 17.2864C100.369 17.0955 100.666 16.8355 100.883 16.5064C101.1 16.1774 101.209 15.8055 101.209 15.3909V12.2515C101.209 11.725 101.041 11.3103 100.705 11.0076C100.376 10.6982 99.8988 10.5436 99.2735 10.5436C98.6944 10.5436 98.2304 10.6686 97.8816 10.9187C97.5327 11.1622 97.3155 11.4782 97.23 11.8665L97.2102 11.9553H94.9396L94.9495 11.8369C95.0021 11.2182 95.2095 10.6653 95.5714 10.1783C95.9334 9.68469 96.4336 9.29638 97.072 9.01338C97.717 8.73037 98.4805 8.58887 99.3624 8.58887C100.238 8.58887 100.995 8.73366 101.633 9.02325C102.278 9.31284 102.775 9.7176 103.124 10.2375C103.479 10.7575 103.657 11.3696 103.657 12.0738V19.2707H101.209V17.6615H101.149C100.952 18.0235 100.695 18.3394 100.379 18.6092C100.063 18.8791 99.7013 19.0864 99.2933 19.2312C98.8918 19.376 98.4607 19.4484 98 19.4484Z" fill="#252D43"/>
<path d="M88.8285 19.478C87.7952 19.478 86.9002 19.2575 86.1433 18.8166C85.3864 18.3756 84.8006 17.7471 84.386 16.931C83.978 16.1148 83.7739 15.1474 83.7739 14.0285V14.0186C83.7739 12.9063 83.9812 11.9454 84.3959 11.1359C84.8105 10.3198 85.393 9.69127 86.1433 9.25031C86.9002 8.80935 87.7854 8.58887 88.7989 8.58887C89.7203 8.58887 90.5167 8.76657 91.188 9.12197C91.8593 9.47079 92.3859 9.93479 92.7676 10.514C93.1493 11.0931 93.3665 11.7315 93.4192 12.4292V12.4983H91.109L91.0893 12.4193C90.9906 11.9125 90.7503 11.4814 90.3686 11.126C89.9935 10.7641 89.4801 10.5831 88.8285 10.5831C88.3152 10.5831 87.8643 10.7246 87.476 11.0076C87.0943 11.284 86.7981 11.6789 86.5875 12.1923C86.3769 12.7056 86.2716 13.321 86.2716 14.0384V14.0482C86.2716 14.7722 86.3769 15.3909 86.5875 15.9042C86.8047 16.4176 87.1042 16.8125 87.4859 17.0889C87.8742 17.3588 88.3251 17.4937 88.8384 17.4937C89.4637 17.4937 89.9671 17.3258 90.3489 16.9902C90.7372 16.6479 90.9873 16.2037 91.0992 15.6574L91.1189 15.5686H93.4389L93.429 15.6377C93.3632 16.3616 93.1329 17.0132 92.738 17.5924C92.3431 18.1716 91.8133 18.6323 91.1485 18.9745C90.4838 19.3102 89.7105 19.478 88.8285 19.478Z" fill="#252D43"/>
<path d="M76.9816 19.5176C75.8891 19.5176 74.9348 19.3531 74.1187 19.024C73.3025 18.695 72.6576 18.2244 72.1837 17.6123C71.7164 17.0002 71.4531 16.2697 71.3939 15.4206L71.384 15.2726H73.8126L73.8324 15.391C73.9048 15.7991 74.0825 16.1512 74.3655 16.4474C74.6485 16.7435 75.0203 16.9739 75.481 17.1384C75.9483 17.2964 76.4781 17.3754 77.0705 17.3754C77.6694 17.3754 78.186 17.2931 78.6204 17.1286C79.0614 16.964 79.4003 16.7304 79.6373 16.4276C79.8742 16.1183 79.9927 15.7596 79.9927 15.3515V15.3417C79.9927 14.8086 79.7919 14.3873 79.3905 14.078C78.9956 13.7687 78.3374 13.5153 77.416 13.3179L75.8858 13.0019C74.4905 12.7124 73.4441 12.2385 72.7464 11.5803C72.0488 10.9156 71.6999 10.0534 71.6999 8.99379V8.98392C71.7065 8.14148 71.9336 7.40764 72.3811 6.7824C72.8353 6.15057 73.4605 5.66024 74.2569 5.31142C75.0532 4.95602 75.9615 4.77832 76.9816 4.77832C78.0149 4.77832 78.9199 4.94944 79.6965 5.29168C80.4731 5.63392 81.0819 6.11108 81.5229 6.72316C81.9704 7.33524 82.2172 8.04605 82.2633 8.85558L82.2732 9.0234H79.8446L79.8248 8.89506C79.7656 8.48043 79.6109 8.12832 79.3608 7.83873C79.1107 7.54256 78.7817 7.3155 78.3736 7.15754C77.9656 6.99959 77.495 6.92061 76.9619 6.92061C76.409 6.92061 75.9286 7.00288 75.5205 7.16741C75.119 7.32537 74.8064 7.54914 74.5827 7.83873C74.3655 8.12832 74.2569 8.46397 74.2569 8.8457V8.85558C74.2569 9.35577 74.4576 9.76383 74.8591 10.0797C75.2671 10.3891 75.899 10.6326 76.7546 10.8103L78.2848 11.1262C79.2786 11.3302 80.0881 11.6067 80.7133 11.9555C81.3386 12.3043 81.7993 12.742 82.0955 13.2685C82.3982 13.795 82.5496 14.4268 82.5496 15.164V15.1738C82.5496 16.0558 82.3258 16.8225 81.8783 17.4741C81.4373 18.1257 80.7989 18.6291 79.9631 18.9845C79.1338 19.3399 78.14 19.5176 76.9816 19.5176Z" fill="#252D43"/>
<path d="M59.8928 19.5176C58.5304 19.5176 57.3457 19.2182 56.3387 18.6193C55.3384 18.0204 54.565 17.1713 54.0188 16.0722C53.4791 14.9665 53.2092 13.6568 53.2092 12.143V12.1332C53.2092 10.6194 53.4824 9.31299 54.0286 8.21388C54.5749 7.11476 55.3482 6.26904 56.3486 5.6767C57.349 5.07778 58.5304 4.77832 59.8928 4.77832C60.9853 4.77832 61.9627 4.98893 62.8248 5.41015C63.6936 5.83136 64.4011 6.41383 64.9474 7.15754C65.4936 7.90125 65.8293 8.75685 65.9544 9.72434L65.9642 9.82306H63.4665L63.4172 9.63549C63.279 9.08922 63.0519 8.61864 62.736 8.22375C62.4201 7.82886 62.0219 7.52282 61.5414 7.30563C61.061 7.08844 60.5114 6.97984 59.8928 6.97984C59.0635 6.97984 58.3428 7.19045 57.7307 7.61167C57.1187 8.03289 56.6448 8.62851 56.3091 9.39855C55.9735 10.162 55.8056 11.0736 55.8056 12.1332V12.143C55.8056 13.1961 55.9735 14.1109 56.3091 14.8875C56.6448 15.6576 57.1187 16.2565 57.7307 16.6843C58.3494 17.1055 59.0701 17.3161 59.8928 17.3161C60.4983 17.3161 61.038 17.2108 61.5118 17.0002C61.9923 16.783 62.397 16.4704 62.7261 16.0623C63.0552 15.6543 63.2954 15.1574 63.4468 14.5716L63.4764 14.4729H65.9741L65.9544 14.5815C65.8359 15.549 65.5035 16.4046 64.9573 17.1483C64.411 17.892 63.7035 18.4745 62.8347 18.8957C61.9659 19.3103 60.9853 19.5176 59.8928 19.5176Z" fill="#252D43"/>
<path d="M48.6387 19.2706V5.0249H51.1857V19.2706H48.6387Z" fill="#252D43"/>
<path d="M34.0669 19.2706L39.161 5.0249H41.3033V7.56208H40.5629L36.7324 19.2706H34.0669ZM36.6436 15.5883L37.3248 13.6237H43.8503L44.5315 15.5883H36.6436ZM44.4427 19.2706L40.6122 7.56208V5.0249H42.024L47.1082 19.2706H44.4427Z" fill="#252D43"/>
</svg>
